# 3ds Max Wavefront OBJ Exporter v0.97b - (c)2007 guruware
# ì¬‚µ‚½ƒtƒ@ƒCƒ‹ : 04.03.2019 17:07:24

mtllib ground_004.mtl

#
# object Plane004
#

v  -0.8681 17.1749 9.2080
v  4.9540 16.8092 9.2080
v  6.0626 17.6424 8.4950
v  -1.6052 17.9267 8.4950
v  6.7965 18.3130 -10.0000
v  -2.1538 18.4057 -10.0000
v  -8.2444 -0.5834 10.0000
v  8.2444 -0.5834 10.0000
v  8.8716 0.6123 9.8838
v  -8.8219 0.6248 9.8838
v  -8.2444 -2.8517 9.6203
v  8.2444 -2.8517 9.6203
v  -8.2444 -19.8580 9.2881
v  8.2444 -19.8580 9.2881
v  12.5955 0.0000 9.7783
v  12.5955 0.0000 8.4950
v  10.6913 0.9332 8.4950
v  15.0000 0.0000 9.7783
v  15.0000 0.0000 8.4950
v  15.0000 0.0000 -10.0000
v  12.5955 0.0000 -10.0000
v  10.7921 0.9617 -10.0000
v  -10.7921 0.9617 -10.0000
v  -12.5955 0.0000 -10.0000
v  -12.5955 0.0000 8.4950
v  -10.6469 0.9488 8.4950
v  -15.0000 0.0000 -10.0000
v  -15.0000 0.0000 8.4950
v  12.5955 -0.5834 10.0000
v  15.0000 -0.5834 10.0000
v  -12.5955 0.0000 9.7783
v  -12.5955 -0.5834 10.0000
v  -15.0000 0.0000 9.7783
v  -15.0000 -0.5834 10.0000
v  -12.5955 -2.8517 9.6203
v  -15.0000 -2.8517 9.6203
v  12.5955 -2.8517 9.6203
v  15.0000 -2.8517 9.6203
v  12.5955 -19.8580 9.2881
v  15.0000 -19.8580 9.2881
v  -12.5955 -19.8580 9.2881
v  -15.0000 -19.8580 9.2881
v  -8.9356 7.4595 8.4950
v  -9.9131 7.5764 -10.0000
v  6.8170 7.0393 9.4575
v  -6.1174 7.3213 9.4575
v  9.4414 7.1398 8.4950
v  10.1606 7.3411 -10.0000
v  -4.3520 13.4581 9.4575
v  -2.6555 15.8850 9.4575
v  -4.6130 16.3084 8.4950
v  -6.7300 13.8604 8.4950
v  -5.4124 16.6935 -10.0000
v  -7.6067 14.1655 -10.0000
v  6.4163 12.4170 9.4575
v  5.9250 15.1082 9.4575
v  9.7196 12.7820 -10.0000
v  8.9139 15.8663 -10.0000
v  7.9819 15.3561 8.4950
v  8.8152 12.4742 8.4950
# 60 vertices

vn -0.0450 0.4726 0.8801
vn 0.1146 0.3859 0.9154
vn 0.4007 0.7810 0.4790
vn -0.2212 0.8751 0.4305
vn 0.4247 0.9040 0.0496
vn -0.2378 0.9708 0.0322
vn -0.0000 -0.0350 0.9994
vn 0.0000 -0.0345 0.9994
vn 0.1832 0.2195 0.9583
vn -0.1854 0.2322 0.9548
vn 0.0000 -0.0926 0.9957
vn 0.0000 -0.0195 0.9998
vn 0.0762 0.8128 0.5775
vn 0.2259 0.9742 -0.0000
vn 0.6661 0.5944 0.4504
vn 0.0000 0.8232 0.5678
vn 0.0000 1.0000 -0.0000
vn 0.2425 0.9701 -0.0000
vn 0.8308 0.5566 0.0054
vn -0.8210 0.5709 0.0068
vn -0.2425 0.9701 -0.0000
vn -0.2246 0.9744 -0.0000
vn -0.6520 0.6151 0.4433
vn 0.0000 0.0985 0.9951
vn -0.0765 0.8127 0.5776
vn -0.0000 0.0985 0.9951
vn -0.7708 0.2328 0.5931
vn -0.9714 0.2316 0.0528
vn 0.1610 0.0633 0.9849
vn -0.1546 0.0837 0.9844
vn 0.7936 0.1270 0.5950
vn 0.9952 0.0895 0.0397
vn -0.1926 0.0994 0.9762
vn -0.1764 0.2705 0.9464
vn -0.5566 0.6697 0.4916
vn -0.7297 0.4124 0.5454
vn -0.6222 0.7816 0.0432
vn -0.8644 0.5003 0.0492
vn 0.1951 0.0257 0.9805
vn 0.2207 0.1483 0.9640
vn 0.9845 0.1676 0.0509
vn 0.8834 0.4651 0.0573
vn 0.7557 0.3927 0.5242
vn 0.8083 0.1612 0.5663
# 44 vertex normals

vt 0.7312 0.6882 0.0000
vt 0.8347 0.6742 0.0000
vt 0.8568 0.6910 0.0000
vt 0.7188 0.7071 0.0000
vt 0.3323 0.4128 0.0000
vt 0.3323 0.5617 0.0000
vt 0.0005 0.5617 0.0000
vt 0.0005 0.4128 0.0000
vt 0.5752 0.3750 0.0000
vt 0.8704 0.3526 0.0000
vt 0.8838 0.3773 0.0000
vt 0.5665 0.4015 0.0000
vt 0.5700 0.3041 0.0000
vt 0.8649 0.2817 0.0000
vt 0.5494 0.0324 0.0000
vt 0.8442 0.0101 0.0000
vt 0.9504 0.3613 0.0000
vt 0.9538 0.3780 0.0000
vt 0.9205 0.3880 0.0000
vt 0.9935 0.3561 0.0000
vt 0.9959 0.3734 0.0000
vt 0.3323 0.0005 0.0000
vt 0.3323 0.0446 0.0000
vt 0.0005 0.0446 0.0000
vt 0.0005 0.0005 0.0000
vt 0.3323 0.0829 0.0000
vt 0.0005 0.0829 0.0000
vt 0.3323 0.9205 0.0000
vt 0.3323 0.9574 0.0000
vt 0.0005 0.9574 0.0000
vt 0.0005 0.9205 0.0000
vt 0.3323 0.9995 0.0000
vt 0.0005 0.9995 0.0000
vt 0.9483 0.3450 0.0000
vt 0.9913 0.3405 0.0000
vt 0.4973 0.3961 0.0000
vt 0.4971 0.3794 0.0000
vt 0.4540 0.3962 0.0000
vt 0.4539 0.3809 0.0000
vt 0.4923 0.3095 0.0000
vt 0.4493 0.3124 0.0000
vt 0.9425 0.2753 0.0000
vt 0.9855 0.2717 0.0000
vt 0.9219 0.0039 0.0000
vt 0.9649 0.0005 0.0000
vt 0.4717 0.0381 0.0000
vt 0.4287 0.0412 0.0000
vt 0.0005 0.8036 0.0000
vt 0.3323 0.8036 0.0000
vt 0.8554 0.4979 0.0000
vt 0.6247 0.5202 0.0000
vt 0.9053 0.4973 0.0000
vt 0.3323 0.1998 0.0000
vt 0.0005 0.1998 0.0000
vt 0.6643 0.6275 0.0000
vt 0.6978 0.6677 0.0000
vt 0.6612 0.6825 0.0000
vt 0.6195 0.6402 0.0000
vt 0.3323 0.6248 0.0000
vt 0.0005 0.6248 0.0000
vt 0.3323 0.6830 0.0000
vt 0.0005 0.6830 0.0000
vt 0.8555 0.5947 0.0000
vt 0.8498 0.6428 0.0000
vt 0.3323 0.2994 0.0000
vt 0.3323 0.3562 0.0000
vt 0.0005 0.3562 0.0000
vt 0.0005 0.2994 0.0000
vt 0.5722 0.5283 0.0000
vt 0.4538 0.4137 0.0000
vt 0.4963 0.4132 0.0000
vt 0.5318 0.4179 0.0000
vt 0.8902 0.6473 0.0000
vt 0.9018 0.5935 0.0000
# 74 texture coords

o Plane004
g Plane004
usemtl wire_135110008
s 1
f 1/1/1 2/2/2 3/3/3 4/4/4 
f 5/5/5 6/6/6 4/7/4 3/8/3 
f 7/9/7 8/10/8 9/11/9 10/12/10 
f 8/10/8 7/9/7 11/13/11 12/14/11 
f 13/15/12 14/16/12 12/14/11 11/13/11 
f 9/11/9 15/17/13 16/18/14 17/19/15 
f 15/17/13 18/20/16 19/21/17 16/18/14 
f 20/22/17 21/23/18 16/24/14 19/25/17 
f 21/23/18 22/26/19 17/27/15 16/24/14 
f 23/28/20 24/29/21 25/30/22 26/31/23 
f 24/29/21 27/32/17 28/33/17 25/30/22 
f 8/10/8 29/34/24 15/17/13 9/11/9 
f 29/34/24 30/35/24 18/20/16 15/17/13 
f 10/12/10 31/36/25 32/37/26 7/9/7 
f 31/36/25 33/38/16 34/39/26 32/37/26 
f 7/9/7 32/37/26 35/40/11 11/13/11 
f 32/37/26 34/39/26 36/41/11 35/40/11 
f 12/14/11 37/42/11 29/34/24 8/10/8 
f 37/42/11 38/43/11 30/35/24 29/34/24 
f 14/16/12 39/44/12 37/42/11 12/14/11 
f 39/44/12 40/45/12 38/43/11 37/42/11 
f 11/13/11 35/40/11 41/46/12 13/15/12 
f 35/40/11 36/41/11 42/47/12 41/46/12 
f 23/28/20 26/31/23 43/48/27 44/49/28 
f 10/12/10 9/11/9 45/50/29 46/51/30 
f 9/11/9 17/19/15 47/52/31 45/50/29 
f 17/27/15 22/26/19 48/53/32 47/54/31 
f 49/55/33 50/56/34 51/57/35 52/58/36 
f 50/56/34 1/1/1 4/4/4 51/57/35 
f 6/6/6 53/59/37 51/60/35 4/7/4 
f 53/59/37 54/61/38 52/62/36 51/60/35 
f 55/63/39 56/64/40 50/56/34 49/55/33 
f 56/64/40 2/2/2 1/1/1 50/56/34 
f 57/65/41 58/66/42 59/67/43 60/68/44 
f 58/66/42 5/5/5 3/8/3 59/67/43 
f 46/51/30 49/55/33 52/58/36 43/69/27 
f 54/61/38 44/49/28 43/48/27 52/62/36 
f 45/50/29 55/63/39 49/55/33 46/51/30 
f 48/53/32 57/65/41 60/68/44 47/54/31 
f 28/70/17 33/38/16 31/36/25 25/71/22 
f 10/12/10 26/72/23 25/71/22 31/36/25 
f 26/72/23 10/12/10 46/51/30 43/69/27 
f 3/3/3 2/2/2 56/64/40 59/73/43 
f 55/63/39 60/74/44 59/73/43 56/64/40 
f 60/74/44 55/63/39 45/50/29 47/52/31 
# 45 polygons

